<svg xmlns:dc="http://purl.org/dc/elements/1.1/" xmlns:cc="http://creativecommons.org/ns#" xmlns:rdf="http://www.w3.org/1999/02/22-rdf-syntax-ns#" xmlns:svg="http://www.w3.org/2000/svg" xmlns="http://www.w3.org/2000/svg" xmlns:sodipodi="http://sodipodi.sourceforge.net/DTD/sodipodi-0.dtd" xmlns:inkscape="http://www.inkscape.org/namespaces/inkscape" version="1.1" x="0px" y="0px" viewBox="0 0 100 125"><g transform="translate(0,-952.36218)"><path style="color:#000000;enable-background:accumulate;" d="m 30.99296,960.36215 c -3.86643,0 -7.0008,3.134 -7.0008,7 0,3.866 3.13437,7 7.0008,7 3.86643,0 7.00079,-3.134 7.00079,-7 0,-3.866 -3.13436,-7 -7.00079,-7 z m -5.37561,15 c -4.03629,0 -10.108229,4 -12.126379,6 l -6.0319403,10 c -1.84954,3.8139 2.23964,7.1295 6.0319403,4 2.01815,-4 4.05838,-10 8.094669,-10 l -2.594049,12 c -0.66528,2.75005 1.576019,5.00005 3.594159,6.00005 l -5.188089,26 7.938399,0 4.31299,-24.0001 5.34436,1 2.34402,13.0001 8.15717,0 -2.25025,-14.0001 c 0,-1 -1.01194,-2.9999 -2.25026,-3.9999 l -7.31333,-4.00005 2.03148,-10 c 2.01814,2 3.01367,4 5.03182,4 l 9.09479,1 c 4.03629,-1 4.02732,-4 1.00011,-6 l -8.06342,-1 c -3.02721,-3 -6.0586,-10 -10.09489,-10 l -7.0633,0 z m 45.38015,25.00005 0,11 -20.00227,0 0,10 -19.00216,0 0,10 -19.002159,0 0,13 80.009089,0 0,-44 -22.0025,0 z" fill="#000000" stroke="none" marker="none" visibility="visible" display="inline" overflow="visible"/></g><text x="0" y="115" fill="#000000" font-size="5px" font-weight="bold" font-family="'Helvetica Neue', Helvetica, Arial-Unicode, Arial, Sans-serif">Created by AFY Studio</text><text x="0" y="120" fill="#000000" font-size="5px" font-weight="bold" font-family="'Helvetica Neue', Helvetica, Arial-Unicode, Arial, Sans-serif">from the Noun Project</text></svg>