<?xml version="1.0" encoding="UTF-8"?>
<svg fill="none" viewBox="0 0 30 54" xmlns="http://www.w3.org/2000/svg">
<g fill="#F56A65" filter="url(#a)">
<circle transform="matrix(1 0 0 -1 14.5 46.5)" r="4.5"/>
<path d="m13.725 37c-0.3473-0.1686-0.6385-0.4405-0.8365-0.7812-3.2245-4.734-6.4733-9.45-9.6804-14.198-1.2215-1.8223-1.961-3.9448-2.145-6.156-0.54146-5.76 2.4609-11.3 7.5528-13.586 4.9426-2.2212 9.611-1.5444 13.79 2.0088 1.2601 1.0626 2.3056 2.3728 3.0763 3.8555 0.7708 1.4827 1.2516 3.1086 1.4151 4.7845 0.4153 3.3667-0.4348 6.7701-2.3742 9.504-3.1215 4.56-6.2454 9.1284-9.3715 13.705-0.2032 0.3748-0.5121 0.6763-0.8851 0.864h-0.5415zm4.599-22.45c0.0033-0.8861-0.2461-1.7534-0.7168-2.4929-0.4708-0.7394-1.1418-1.318-1.9288-1.6629s-1.6547-0.44075-2.494-0.2755c-0.8394 0.1653-1.6129 0.5843-2.2232 1.2044-0.6104 0.62-1.0303 1.4134-1.207 2.2804-0.17669 0.8669-0.10227 1.7687 0.21392 2.5919 0.31615 0.8232 0.86005 1.531 1.563 2.0345 0.7031 0.5034 1.534 0.78 2.3882 0.7949 0.5727 0.0072 1.1412-0.103 1.6728-0.3242s1.0159-0.5491 1.4251-0.9648 0.7353-0.9111 0.9595-1.4578c0.2243-0.5467 0.3422-1.1339 0.3472-1.728z"/>
</g>
<defs>
<filter id="a" x="0" y="0" width="30" height="54" color-interpolation-filters="sRGB" filterUnits="userSpaceOnUse">
<feFlood flood-opacity="0" result="BackgroundImageFix"/>
<feColorMatrix in="SourceAlpha" values="0 0 0 0 0 0 0 0 0 0 0 0 0 0 0 0 0 0 127 0"/>
<feOffset dx="1" dy="1"/>
<feGaussianBlur stdDeviation="1"/>
<feColorMatrix values="0 0 0 0 0 0 0 0 0 0 0 0 0 0 0 0 0 0 0.25 0"/>
<feBlend in2="BackgroundImageFix" result="effect1_dropShadow"/>
<feBlend in="SourceGraphic" in2="effect1_dropShadow" result="shape"/>
</filter>
</defs>
</svg>
