<svg width="18" height="33" viewBox="0 0 18 33" fill="none" xmlns="http://www.w3.org/2000/svg">
<circle r="3.29412" transform="matrix(1 0 0 -1 8.29412 29.2938)" fill="#83D0B0"/>
<path d="M8.46395 23.8824C8.2329 23.7705 8.03922 23.5901 7.90755 23.3641C5.76274 20.2236 3.60177 17.095 1.46851 13.9449C0.656047 12.736 0.164101 11.3279 0.041714 9.86105C-0.318448 6.03988 1.6786 2.36439 5.06551 0.847864C8.35314 -0.625675 11.4584 -0.176687 14.2381 2.1805C15.0763 2.88542 15.7717 3.75462 16.2843 4.73822C16.797 5.72182 17.1169 6.80046 17.2256 7.91225C17.5019 10.1457 16.9364 12.4035 15.6464 14.2172C13.5701 17.2423 11.4922 20.2729 9.41284 23.3092C9.27766 23.5578 9.07225 23.7578 8.82412 23.8824H8.46395ZM11.523 8.98934C11.5252 8.4015 11.3593 7.82612 11.0462 7.33556C10.7331 6.845 10.2867 6.46118 9.76326 6.23237C9.23981 6.00355 8.66263 5.93997 8.10432 6.04962C7.54602 6.15926 7.03153 6.43724 6.62556 6.84858C6.21959 7.25993 5.94028 7.78627 5.82275 8.3614C5.70522 8.93654 5.75473 9.53478 5.96504 10.0809C6.17535 10.627 6.53708 11.0966 7.00473 11.4306C7.47237 11.7645 8.02505 11.948 8.59324 11.9579C8.97422 11.9626 9.35234 11.8895 9.70595 11.7428C10.0596 11.5961 10.3817 11.3786 10.6539 11.1028C10.926 10.827 11.1429 10.4983 11.2921 10.1357C11.4412 9.773 11.5197 9.38345 11.523 8.98934Z" fill="#83D0B0"/>
</svg>
