<?xml version="1.0" encoding="UTF-8"?>
<svg viewBox="0 0 105 36" xmlns="http://www.w3.org/2000/svg">
<path d="m15.273 29.284c1.596 0 2.9314-0.3257 4.0063-0.9771 1.1074-0.6515 1.9868-1.4983 2.6382-2.5406 0.684-1.0423 1.1563-2.2311 1.4169-3.5666 0.2931-1.368 0.4397-2.7685 0.4397-4.2017v-17.686h6.6934v17.686c0 2.3777-0.2931 4.6089-0.8794 6.6934-0.5537 2.0846-1.4494 3.9086-2.6871 5.472-1.2052 1.5635-2.7686 2.8012-4.6903 3.7132s-4.218 1.368-6.8889 1.368c-2.7685 0-5.13-0.4723-7.0843-1.4169-1.9217-0.9771-3.4851-2.2474-4.6903-3.8108-1.2052-1.596-2.0846-3.4363-2.6383-5.5209-0.52114-2.0846-0.78171-4.2506-0.78171-6.498v-17.686h6.7423v17.686c0 1.4657 0.13029 2.8826 0.39086 4.2506 0.29314 1.3354 0.76543 2.5243 1.4169 3.5666 0.684 1.0422 1.5634 1.8891 2.6382 2.5405 1.0749 0.6189 2.394 0.9283 3.9575 0.9283z" fill="#83D0B0"/>
<path d="m61.345 31.091c-2.7686 2.7686-5.9932 4.1529-9.6738 4.1529-2.28 0-4.4297-0.456-6.4491-1.368-1.9869-0.912-3.7294-2.166-5.2277-3.762-1.4657-1.596-2.6383-3.4689-3.5177-5.6186-0.8469-2.1823-1.2703-4.5274-1.2703-7.0354 0-2.3777 0.4234-4.6089 1.2703-6.6934 0.8794-2.1172 2.0683-3.9575 3.5665-5.5209 1.5309-1.596 3.3223-2.85 5.3743-3.762 2.052-0.94457 4.2832-1.4169 6.6935-1.4169 3.2571 0 6.042 0.684 8.3545 2.052 2.3452 1.368 4.104 3.2083 5.2766 5.5209l-5.0323 3.7131c-0.8794-1.7262-2.1171-3.0454-3.7131-3.9574-1.5635-0.912-3.2735-1.368-5.13-1.368-1.4657 0-2.8175 0.30943-4.0552 0.92829-1.2051 0.61885-2.2474 1.4657-3.1268 2.5406-0.8469 1.0748-1.5146 2.3125-2.0032 3.7131-0.456 1.4006-0.684 2.8826-0.684 4.446 0 1.6286 0.2606 3.1594 0.7817 4.5926 0.5212 1.4006 1.2378 2.622 2.1498 3.6643s1.9868 1.8728 3.2245 2.4917c1.2703 0.5863 2.6383 0.8794 4.104 0.8794 3.3549 0 6.384-1.5797 9.0875-4.7391v-2.4429h-6.9866v-4.9346h12.556v17.833h-5.5697v-3.9086z" fill="#68C4D9"/>
<path d="m87.464 35.244c-2.5406 0-4.8532-0.4886-6.9378-1.4657-2.052-1.0097-3.8271-2.3289-5.3254-3.9575-1.4657-1.6611-2.6057-3.5502-3.42-5.6674-0.8143-2.1171-1.2214-4.2831-1.2214-6.498 0-2.3126 0.4234-4.5274 1.2703-6.6446 0.8794-2.1171 2.0683-3.99 3.5665-5.6185 1.5309-1.6286 3.3386-2.9152 5.4232-3.8597 2.0846-0.97714 4.3483-1.4657 6.7911-1.4657 2.508 0 4.788 0.52114 6.84 1.5634 2.0846 1.0097 3.8597 2.3451 5.3255 4.0063 1.4656 1.6612 2.6056 3.5503 3.4196 5.6674 0.815 2.1171 1.222 4.2668 1.222 6.4491 0 2.3126-0.424 4.5275-1.27 6.6446-0.847 2.0846-2.02 3.9411-3.5182 5.5697-1.4983 1.596-3.2897 2.8826-5.3743 3.8597-2.0846 0.9446-4.3483 1.4169-6.7911 1.4169zm-10.065-17.589c0 1.4983 0.228 2.9477 0.684 4.3483s1.1074 2.6383 1.9543 3.7131c0.8794 1.0749 1.938 1.938 3.1757 2.5895 1.2703 0.6514 2.7034 0.9771 4.2994 0.9771 1.6286 0 3.0617-0.3257 4.2994-0.9771 1.2703-0.684 2.3289-1.5797 3.1758-2.6872 0.8794-1.1074 1.5308-2.3451 1.9542-3.7131 0.456-1.4006 0.684-2.8174 0.684-4.2506 0-1.4983-0.2442-2.9477-0.7328-4.3483-0.456-1.4005-1.1237-2.6383-2.0032-3.7131-0.8468-1.0749-1.9054-1.9217-3.1757-2.5406-1.2377-0.65143-2.6383-0.97714-4.2017-0.97714-1.6286 0-3.078 0.342-4.3483 1.026-1.2703 0.65143-2.3288 1.5309-3.1757 2.6383-0.8468 1.0748-1.4983 2.3126-1.9543 3.7132-0.4234 1.368-0.6351 2.7686-0.6351 4.2017z" fill="#5D86C4"/>
</svg>
