<svg xmlns="http://www.w3.org/2000/svg" xmlns:xlink="http://www.w3.org/1999/xlink" viewBox="0 0 100 125" version="1.1" x="0px" y="0px"><title>Person figure falling fainting</title><desc>Created with Sketch.</desc><g stroke="none" stroke-width="1" fill="none" fill-rule="evenodd"><g fill="#000000" fill-rule="nonzero"><path d="M64.5403476,73.030193 C64.6175408,72.9270582 64.6193383,72.9252491 64.6540381,72.890324 C64.7543768,72.7988443 64.7573545,72.7960755 64.8088048,72.7663834 C64.8675275,72.7027897 64.8763843,72.694941 64.9945916,72.6669394 C65.0606083,72.6079929 65.1021751,72.5974923 65.2218314,72.5672646 C65.2767152,72.5290725 65.311351,72.5225982 65.4022496,72.505607 C65.2725672,72.5412461 65.2725672,72.5412461 65.216122,72.6053802 C65.2817043,72.5261407 65.2817043,72.5261407 65.4650534,72.4798229 C65.4427522,72.4754724 65.5405739,72.4687461 65.7585183,72.459644 C65.7166984,72.4645132 65.6572351,72.4865299 65.6236718,72.5229789 C65.6869079,72.4368675 65.7412734,72.4236928 65.8658557,72.3935022 C65.7699829,72.4132467 65.7238818,72.422741 65.6895281,72.4596291 C65.7078315,72.4231505 65.7649447,72.4071628 65.8898354,72.3722023 C65.771765,72.3928111 65.771765,72.3928111 65.7096722,72.4441997 C65.7755034,72.3680014 65.7770835,72.3657056 65.8012842,72.3350605 C65.8538391,72.1909633 65.8538391,72.1909633 65.8615553,72.1669388 C65.9135904,72.0405589 65.9169454,72.0313836 65.9188418,72.0233157 C65.951866,71.8845944 65.951866,71.8845944 65.9657302,71.8333889 C65.9709093,71.7562815 65.976132,71.7067168 65.9862805,71.6535907 C66.0108035,71.5394144 66.0120173,71.5278956 66.0120173,71.512359 C66.0120173,71.4580071 66.0176781,71.402988 66.0279514,71.3517261 C66.0337131,71.2402699 66.0384032,71.1865509 66.0474834,71.1300923 C66.0756508,70.9499053 66.0852405,70.8998361 66.095789,70.8537407 C66.1260611,70.6582396 66.1260611,70.6582396 66.1360808,70.575549 C66.1442933,70.5056726 66.1570389,70.4359575 66.1734826,70.3697708 C66.1856041,70.3182029 66.19569,70.2667137 66.2038334,70.2147507 C66.2164705,70.1331139 66.2164705,70.1331139 66.227446,70.0534576 C66.2362228,69.9948644 66.2483207,69.9329339 66.2636917,69.8675416 C66.2755217,69.8172139 66.2842105,69.7717191 66.2903396,69.7277584 C66.3006703,69.6598058 66.3199763,69.5858868 66.348773,69.5020598 C66.3691053,69.4447519 66.3848692,69.3920064 66.3963343,69.3432362 C66.411949,69.2776588 66.4327138,69.2056844 66.4575382,69.1302819 C66.4797667,69.0597214 66.5012559,68.9887918 66.5212762,68.9200451 C66.5423001,68.8451289 66.5648528,68.7676349 66.5880405,68.6905923 C66.6105448,68.6125284 66.6357477,68.5227891 66.663131,68.423272 C66.6922337,68.3145416 66.7231297,68.2131684 66.7561357,68.1183906 C66.7862477,68.0326596 66.8194321,67.9364041 66.8562451,67.8279979 C66.8921946,67.7242784 66.9282838,67.6118408 66.9644801,67.4907292 C67.0205633,67.3034514 67.0205633,67.3034514 67.0762003,67.1191622 C67.1134349,66.9935043 67.154486,66.8615724 67.1992181,66.7237691 C67.2436488,66.586141 67.2880858,66.4507501 67.3326791,66.3171485 C67.3752343,66.190372 67.4179992,66.0499413 67.4608241,65.8962664 C67.5066907,65.7308996 67.5528318,65.5832872 67.5995892,65.4526995 C67.6407762,65.3383653 67.6826165,65.2009708 67.7248266,65.0409274 C67.7695318,64.871424 67.8142721,64.7093603 67.8591556,64.5543763 C67.9030548,64.4035331 67.9503974,64.2376975 68.0012572,64.0566029 C68.0528096,63.873797 68.1055294,63.6943454 68.1593213,63.5185634 C68.2124448,63.3442201 68.2682398,63.1590228 68.3264247,62.9639202 C68.3846124,62.7662351 68.4428107,62.5730248 68.5012308,62.3836089 C68.5595125,62.1963498 68.6288793,61.9682307 68.7095054,61.6986601 C68.7924911,61.4237901 68.8722529,61.1827598 68.9486342,60.9761665 C69.0215505,60.7769077 69.1052618,60.5366504 69.1996163,60.2557889 C69.2946249,59.9722339 69.3873497,59.693167 69.4777905,59.4185887 C69.5687393,59.1424683 69.665776,58.8540456 69.7687664,58.5537099 C69.8704595,58.2556886 69.9652987,57.9730118 70.0532818,57.7056886 C70.141341,57.4381342 70.232836,57.155986 70.3277646,56.8592496 C70.4223253,56.5636632 70.5100432,56.2793285 70.5907189,56.0069312 C70.6705959,55.7346836 70.744035,55.4692121 70.8108505,55.211254 C70.8778669,54.9495757 70.948689,54.6737005 71.0231063,54.3844509 C71.0964898,54.0955313 71.1657007,53.8111158 71.2305449,53.5320511 C71.2951877,53.249827 71.3579271,52.9739588 71.4186008,52.7051698 C71.4779183,52.4390583 71.5327524,52.1665734 71.583121,51.8875901 C71.634005,51.6064984 71.681463,51.3388744 71.725518,51.0845889 C71.7694577,50.831712 71.8134104,50.567973 71.8573926,50.2932618 C71.9005113,50.0246742 71.9331872,49.7629339 71.9555173,49.5071862 C71.9785685,49.2524109 71.9934539,48.9900939 72.0001586,48.7202187 C72.0069545,48.4474148 72.0103502,48.1884885 72.0103502,47.9434587 L72.0103502,45.5489015 C72.0103502,45.2761419 72.0069527,45.0022562 72.0001577,44.7272627 C71.9933132,44.4510128 71.9864692,44.1900907 71.9796254,43.944476 C71.9729407,43.7038418 71.9580765,43.4594114 71.9349422,43.2102952 C71.9120729,42.9550918 71.8888243,42.6898061 71.8651326,42.4136829 C71.8427205,42.1437781 71.8143701,41.8874217 71.7801066,41.6446419 C71.7455693,41.3999223 71.70538,41.1495434 71.6595105,40.8933753 C71.6140339,40.63867 71.5595695,40.3790089 71.4962792,40.1151125 C71.4312483,39.847116 71.3654801,39.5873603 71.2992294,39.3367951 C71.2327455,39.0889139 71.1679551,38.8692105 71.1049657,38.6778707 C71.0428768,38.4892666 70.9607477,38.2748551 70.858426,38.0346375 C70.7549811,37.7907525 70.6561519,37.5648534 70.5619585,37.3569711 C70.4691658,37.1521799 70.3719878,36.9540882 70.2708275,36.7634314 C70.166954,36.5690825 70.0577667,36.371327 69.9434368,36.17047 C69.8292121,35.9703768 69.7109038,35.7743523 69.5886668,35.5826349 C69.4665581,35.3915532 69.3481744,35.2192097 69.2331175,35.0649777 C69.1161286,34.9071462 68.9800377,34.7271477 68.8244852,34.5245215 C68.6687179,34.3206222 68.5277808,34.1346356 68.4016598,33.9665416 C68.2791557,33.8032682 68.1498884,33.6406215 68.0138512,33.4786047 C67.8759777,33.3144007 67.7369871,33.1528008 67.5968798,32.9938044 C67.456703,32.8347292 67.3142589,32.6767567 67.169099,32.5194001 C67.0263363,32.3639131 66.8860238,32.2188729 66.7476476,32.083751 C66.6078548,31.9465096 66.4657998,31.8107365 66.3214523,31.6764043 C66.1775906,31.5424861 66.029594,31.4107318 65.8780644,31.2816556 C65.7288632,31.1552822 65.5761044,31.0365253 65.4192644,30.9249986 C65.2579695,30.8097665 65.0894279,30.6907799 64.913643,30.5680422 C64.7440127,30.4496016 64.5677209,30.3379291 64.3847424,30.2330199 C64.1984824,30.1262293 64.0215228,30.0302398 63.8539239,29.9450574 C63.6845001,29.8589477 63.4870875,29.7625965 63.261809,29.6560812 C63.0419005,29.552105 62.8445362,29.4685001 62.6701628,29.4052802 C62.4934378,29.3412077 62.2826716,29.2740496 62.0384416,29.2040854 C61.7978315,29.1353671 61.5721716,29.0840778 61.361777,29.0501235 C61.1541283,29.0167268 60.9408015,29 60.7216543,29 L59.349106,29 C59.087293,29 58.8419896,29.006578 58.6132574,29.0197015 C58.3848328,29.0328073 58.1517579,29.0535761 57.9139276,29.0820327 C57.6706978,29.1110447 57.4125853,29.1434176 57.1396012,29.1791512 C56.8696989,29.2144814 56.6116603,29.2538228 56.3661787,29.2970411 C56.1183914,29.3412711 55.8606179,29.3921801 55.5919657,29.4499663 C55.3209711,29.5073494 55.0381581,29.56847 54.7436847,29.6332937 C54.4510606,29.6978769 54.1721746,29.7624305 53.9070385,29.8269486 C53.6423784,29.8913509 53.3639322,29.963211 53.0721972,30.042399 C52.7772275,30.1230056 52.4860663,30.2032369 52.1993858,30.2829053 C51.9156244,30.3625004 51.621087,30.4521258 51.3157951,30.5517865 C51.0075551,30.6524096 50.7252246,30.7459199 50.4692919,30.8321513 C50.2120072,30.9193281 49.906298,31.0244668 49.5515263,31.1477898 C49.201273,31.2685462 48.8777576,31.3902236 48.5812753,31.5126641 C48.2810459,31.6369653 47.9804295,31.763875 47.6796689,31.8932886 C47.3815915,32.0218717 47.0750454,32.1612559 46.7605409,32.3112057 C46.4451468,32.4623209 46.134306,32.6174973 45.8280173,32.7767344 C45.5226367,32.9354994 45.2466485,33.0862736 44.9998077,33.2291705 C44.7474709,33.3748067 44.4469084,33.545404 44.0978098,33.741141 C43.7518552,33.9346917 43.4550896,34.1064658 43.2079101,34.2561973 C42.9586045,34.4075008 42.6806086,34.5809087 42.3737209,34.776559 C42.0656386,34.9724873 41.7461121,35.1785127 41.4155236,35.3943861 C41.0850058,35.610958 40.7762126,35.8170309 40.4894497,36.0123927 C40.2050554,36.2066537 39.9240299,36.4075745 39.6463717,36.6151572 C39.3674789,36.8236629 39.0816775,37.0433807 38.7886952,37.2745292 C38.4959759,37.5048752 38.2001387,37.7464131 37.9006055,37.9996357 C37.5986138,38.2535484 37.3152786,38.4925083 37.0506029,38.7165129 C36.7882137,38.9385822 36.5142866,39.1789875 36.2291488,39.4374446 C35.9411015,39.6992875 35.6716961,39.9432007 35.4206097,40.1694745 C35.1692596,40.3952999 34.9099184,40.6278495 34.6425857,40.8671236 C34.3760776,41.1056598 34.0924122,41.3621524 33.7916186,41.6365764 C33.4896161,41.9121561 33.2321556,42.1477435 33.0196779,42.3429327 C32.8082726,42.5379235 32.5749604,42.7614272 32.3198342,43.0133793 C32.0625939,43.2674149 31.8274523,43.5023608 31.6151219,43.7174902 C31.4041475,43.9327512 31.1961771,44.1520913 30.9915598,44.3751298 C30.7866283,44.5993358 30.5999951,44.8077844 30.432038,45.0000342 C30.2596169,45.1981536 30.0757678,45.400261 29.8804877,45.6063749 C29.6904993,45.8069035 29.505024,46.0107415 29.3243856,46.2175168 C29.1402125,46.4290893 28.9700939,46.6223749 28.8135539,46.7979039 C28.659013,46.9703473 28.5013792,47.1506502 28.3402353,47.3393042 C28.0977509,47.6218358 28.0977509,47.6218358 27.862808,47.8954817 C27.7079969,48.0756404 27.5688213,48.2407881 27.4452117,48.3910003 C27.3197388,48.5432991 27.1767463,48.7172843 27.0173152,48.9116299 C26.8595591,49.1063323 26.7223952,49.2814648 26.6067984,49.4356842 C26.4910276,49.5918722 26.374778,49.7555413 26.2585308,49.9259961 C26.14243,50.0973366 26.0377558,50.2577217 25.944202,50.4076138 C25.7989742,50.6391384 25.7989742,50.6391384 25.644631,50.885106 C25.5444992,51.0465548 25.4674727,51.1814651 25.4135671,51.2893954 C25.3555881,51.4047157 25.2933815,51.5309297 25.2269617,51.6680138 C25.1636173,51.7987509 25.1149482,51.9103558 25.081073,52.0019821 C25.0506874,52.0841696 25.0301427,52.165451 25.0189099,52.2481033 C25.0062042,52.336733 25,52.4143126 25,52.4803375 L25,52.7213627 C25,52.7935767 25.0030346,52.8611055 25.0087407,52.9210195 C25.0141839,52.9723203 25.0249409,53.0211634 25.040067,53.065263 C25.1207077,53.1849392 25.1645014,53.2306675 25.2189765,53.2844517 L64.5403476,73.030193 Z M65.6895281,72.4596291 C65.6577079,72.4937967 65.6359663,72.5514667 65.5940866,72.6625536 C65.624094,72.559234 65.6403789,72.5031631 65.6712254,72.4665728 L65.6895281,72.4596291 Z M65.6236718,72.5229789 C65.5933011,72.5559606 65.5841373,72.6007594 65.5666813,72.6860956 C65.6007776,72.5817881 65.6199948,72.5229985 65.6491945,72.4854124 L65.6236718,72.5229789 Z M65.6758882,72.4710425 C65.6564345,72.4812564 65.6392969,72.4960731 65.6091326,72.5221523 C65.6373239,72.494898 65.6546254,72.4781714 65.674452,72.4659791 L65.6758882,72.4710425 Z M65.387999,72.492394 C65.3892461,72.4918471 65.3904575,72.4913158 65.3916365,72.4907995 C65.3891343,72.4912495 65.3886289,72.4917589 65.387999,72.492394 Z M65.2490926,72.5499541 C65.2303918,72.559117 65.2120648,72.573134 65.1798366,72.5977832 C65.2086265,72.5731205 65.2264464,72.5578553 65.2456007,72.546888 L65.2490926,72.5499541 Z M65.0471227,72.6547063 C65.0299086,72.6571159 65.0162252,72.6590312 65.0052468,72.6606206 C65.0036569,72.6621728 65.0019629,72.6638375 65.0001515,72.6656263 C65.0142285,72.6623112 65.0298032,72.6587104 65.0471227,72.6547063 Z M65.0849635,72.6218548 C65.0999227,72.6193297 65.1174657,72.6165528 65.1384736,72.6132275 C65.1034015,72.6182864 65.0824521,72.6213082 65.0693026,72.6235661 L65.0849635,72.6218548 Z M64.5177281,73.1128178 C64.5148699,73.1279467 64.5117805,73.1454019 64.508152,73.1659039 C64.5146232,73.1244708 64.5180744,73.1023737 64.5204082,73.0901778 L64.5177281,73.1128178 Z M64.5237661,73.0798339 C64.5247198,73.077759 64.5257515,73.0755139 64.5268712,73.0730773 C64.5257303,73.074028 64.5248576,73.0747552 64.52401,73.076465 L64.5237661,73.0798339 Z M64.4659021,73.2858559 C64.4659021,73.2723106 64.4666387,73.258851 64.4681292,73.2454418 C64.4673267,73.258715 64.4659021,73.2722482 64.4659021,73.2858559 Z M65.3957471,73.0694677 C65.4013713,73.0640643 65.4062343,73.057707 65.4125094,73.0495035 C65.4042554,73.0570478 65.397148,73.0635442 65.3908774,73.0692193 L65.3957471,73.0694677 Z M65.3685409,73.0950383 C65.367298,73.0955834 65.3660906,73.0961129 65.3649153,73.0966276 C65.3679002,73.0961378 65.3681827,73.0956529 65.3685409,73.0950383 Z M65.4569158,73.0696248 C65.4334578,73.0756501 65.4037866,73.0798258 65.357716,73.0863095 C65.4012398,73.0792439 65.4276267,73.0749603 65.4476648,73.0691323 L65.4569158,73.0696248 Z M65.5113119,73.0466125 C65.5302893,73.0349949 65.5516397,73.0186163 65.5835546,72.9941333 C65.5603466,73.0143483 65.546931,73.0260338 65.5296881,73.0345981 L65.5113119,73.0466125 Z M65.6245332,72.9915327 C65.6410023,72.9818919 65.6500859,72.970414 65.6654424,72.9510097 C65.6413463,72.977117 65.6255968,72.9941812 65.6081572,73.0069866 L65.6245332,72.9915327 Z M65.6129047,73.0075966 C65.6118153,73.0080612 65.6107512,73.008515 65.6097105,73.0089585 C65.6128564,73.0084646 65.6128777,73.0080826 65.6129047,73.0075966 Z M65.9095337,72.9778533 C65.885129,72.9844911 65.8521027,72.9904772 65.7996263,72.9999889 C65.8496349,72.9904514 65.8798429,72.9846902 65.9015044,72.9782362 L65.9095337,72.9778533 Z M65.9605636,72.9564351 C65.9752041,72.9473665 65.990367,72.935342 66.0122927,72.9179546 C65.9999944,72.9301865 65.9925425,72.9375983 65.9795084,72.9439064 L65.9605636,72.9564351 Z M66.0127904,72.9071424 C65.9863229,72.9162667 65.9516938,72.9221739 65.8898354,72.932726 C65.9369024,72.9192342 65.9735691,72.9087237 66.0028046,72.8982795 L66.0127904,72.9071424 Z"/><path d="M78.7297123,6.82440991 C79.3233652,7.13936744 79.5445461,7.86715879 79.2237337,8.44997739 C78.9029213,9.03279599 78.1616006,9.24994029 77.5679477,8.93498277 C77.2646316,8.77406097 77.0363787,8.65241363 76.8866063,8.57186438 C76.8102844,8.5311994 76.706149,8.48947532 76.5735427,8.44930567 C76.4734598,8.41887551 76.3792975,8.40312197 76.288368,8.40043715 C76.1369222,8.39594864 75.9533584,8.40221435 75.7432412,8.41985578 C75.5591667,8.43584826 75.4020428,8.46306996 75.2712281,8.49976291 C75.0957713,8.5487989 74.923782,8.60466391 74.7499554,8.66929236 C74.590607,8.72773608 74.4420327,8.79149646 74.3059364,8.85943305 C74.1421007,8.941567 73.9740398,9.03025111 73.8018045,9.12549477 C73.6412521,9.2142779 73.4749319,9.31446064 73.3030266,9.42609708 C73.1095121,9.55176664 72.9133116,9.68005657 72.7170719,9.80922027 C72.5366137,9.92867227 72.3430145,10.0656966 72.1361849,10.2205688 C71.9385125,10.3684277 71.7444269,10.5262215 71.5555152,10.6926105 C71.3648424,10.8611508 71.1825746,11.0351031 71.008726,11.2144123 C70.8307281,11.3980357 70.6518932,11.5941816 70.4738244,11.8010928 C70.2882627,12.0175597 70.1489255,12.1843218 70.0582572,12.2980985 C69.958807,12.4228955 69.8243585,12.5929727 69.6552492,12.8079133 C69.4988829,13.0066572 69.3436911,13.2161086 69.1897301,13.4362786 C69.0360815,13.6560017 68.922749,13.8260914 68.8511817,13.943396 C68.7761189,14.0657787 68.6702898,14.2491686 68.5360983,14.4899882 C68.4044425,14.7262572 68.2815492,14.9606242 68.1686718,15.1904596 C68.0638661,15.4051927 67.9680281,15.6302996 67.8822381,15.8631822 C67.7951817,16.1013172 67.7177868,16.3485875 67.650857,16.6022988 C67.586091,16.8502765 67.5397773,17.077619 67.5118041,17.2805759 C67.4831297,17.4926472 67.4646454,17.7234643 67.4567511,17.9727642 C67.4480049,18.2489646 67.4436384,18.5186756 67.4436384,18.7818822 L67.4436384,19.6002468 C67.4436384,19.8440252 67.4522424,20.0937183 67.469508,20.3493313 C67.4881085,20.6247075 67.5093251,20.9046253 67.5329225,21.1862866 C67.5566725,21.4618451 67.583487,21.7152687 67.6137031,21.9498025 C67.6407316,22.1646735 67.677804,22.3830483 67.7257063,22.6082763 C67.7694589,22.8169106 67.8265953,23.0264915 67.8969523,23.2361788 C67.975674,23.4701038 68.053704,23.68419 68.1302859,23.876852 C68.2003207,24.052427 68.281061,24.2276158 68.3742166,24.4054913 C68.4614965,24.5732951 68.5595518,24.736619 68.6691411,24.8965011 C68.7815799,25.0608409 68.8981033,25.213985 69.0169711,25.3541476 C69.1364634,25.4944378 69.2653712,25.6300976 69.4038716,25.7611924 C69.5512424,25.9006833 69.7026802,26.0334858 69.8605841,26.1615811 C70.0187179,26.2905156 70.1739756,26.4086689 70.324202,26.5146567 C70.4863194,26.6285375 70.6516674,26.7393889 70.8202586,26.8472136 C70.9781982,26.948226 71.1450045,27.046289 71.319326,27.1405787 C71.4975677,27.2366899 71.665681,27.3208499 71.8271113,27.3948168 C71.9846634,27.4676438 72.1550869,27.5393961 72.3368775,27.609348 C72.5285652,27.682838 72.7176695,27.7506596 72.9028658,27.8123966 C73.0903469,27.8746621 73.2740777,27.9312645 73.4569832,27.9830668 C73.6316243,28.032992 73.8246005,28.0816898 74.0347645,28.1287357 C74.2398837,28.1745029 74.4438581,28.2123355 74.6467336,28.2422765 C74.8424362,28.2711589 75.0361708,28.290867 75.2240111,28.3012544 C75.4380594,28.3123878 75.6485471,28.3193338 75.855471,28.3221072 C76.0729937,28.3250226 76.2878191,28.3264796 76.499945,28.3264796 C76.6488086,28.3264796 76.7914297,28.3148745 76.9277462,28.2920743 C77.1178038,28.2601669 77.3095133,28.2243999 77.4977888,28.1858181 C77.6653447,28.1507414 77.8340295,28.106681 78.0051654,28.0531392 C78.1802029,27.9985759 78.3335932,27.9438989 78.4690412,27.8880466 C78.5995834,27.834793 78.7317249,27.7733265 78.8692948,27.7015081 C78.9956273,27.6361121 79.1127973,27.5669264 79.2210313,27.494079 C79.3466926,27.409502 79.4686131,27.321556 79.5810533,27.234721 C79.6879072,27.1511438 79.7882094,27.0644086 79.8794105,26.9770907 C79.9762747,26.8837663 80.0681154,26.7871192 80.1523179,26.6902115 C80.2411307,26.5872766 80.3247503,26.4822452 80.4051543,26.3724813 C80.4843239,26.2650026 80.5582968,26.1560683 80.6271344,26.0456453 C80.6919523,25.9416703 80.751974,25.8340658 80.8072355,25.7227044 C80.8683047,25.5996396 80.927211,25.4706314 80.9857871,25.3311859 C81.0365296,25.2117397 81.0827012,25.0846466 81.123728,24.9511565 C81.170293,24.7989903 81.2150259,24.6355416 81.2570114,24.464141 C81.3270672,24.1746411 81.3270672,24.1746411 81.3927409,23.9034283 C81.4592688,23.6222629 81.4592688,23.6222629 81.5336178,23.3063657 C81.583637,23.0967477 81.631768,22.8901547 81.6787207,22.6834868 C81.7252315,22.4812694 81.7695014,22.2813441 81.811532,22.0837135 C81.8769622,21.7759781 81.8769622,21.7759781 81.9440936,21.4599289 C81.9883641,21.2521926 82.03342,21.0365537 82.0794125,20.81227 C82.1225131,20.6027808 82.1586283,20.407256 82.1877916,20.2259258 C82.2156809,20.0525172 82.2391863,19.8669172 82.258517,19.6656734 C82.278036,19.4687591 82.2907667,19.2766794 82.2967643,19.0895676 C82.3032231,18.8873617 82.306441,18.6936026 82.306441,18.5083466 C82.306441,18.3408145 82.2996929,18.1720357 82.2861403,18.0016014 C82.274385,17.8532206 82.253761,17.7131073 82.2255777,17.5854808 C82.1890105,17.4229524 82.1494496,17.2688915 82.1066099,17.1220095 C82.0681375,16.9895233 82.0244311,16.8628129 81.9737403,16.7371865 C81.8720773,16.4823507 81.8720773,16.4823507 81.741694,16.1558736 C81.6455315,15.9143478 81.5634462,15.6987869 81.4947168,15.5069269 C81.4284537,15.321171 81.3667992,15.1419412 81.3077116,14.9629534 C81.2633163,14.8259719 81.2035007,14.6631022 81.1278789,14.4744857 C81.0540857,14.2897799 80.9760653,14.1132184 80.8931047,13.9431549 C80.8036409,13.759061 80.7121127,13.5782924 80.6202782,13.4041569 C80.5253466,13.2255254 80.4251739,13.0436941 80.3207348,12.8603954 C80.2192702,12.6830027 80.119187,12.5173216 80.0239447,12.3685949 C79.929482,12.2227711 79.8334811,12.0856819 79.7400699,11.9625718 C79.6313823,11.8209972 79.522934,11.6842575 79.4152163,11.5529313 C79.2818977,11.3905993 79.1467672,11.2146931 79.0060226,11.0201975 L78.8221788,10.7634777 C78.4340793,10.2215348 78.5669609,9.47332828 79.1189783,9.09231166 C79.6709956,8.71129504 80.4331109,8.84175156 80.8212105,9.38369446 L81.0015415,9.63553498 C81.1109573,9.7867172 81.2163844,9.9239569 81.3180072,10.0476957 C81.4427605,10.1997908 81.5672572,10.3567655 81.6955481,10.5239052 C81.8295258,10.7004358 81.9596186,10.8862082 82.0892532,11.0863565 C82.2099207,11.2747493 82.3306024,11.4745296 82.4524031,11.6874798 C82.5692734,11.8925925 82.6807304,12.0949067 82.7885245,12.297754 C82.8943861,12.4984731 82.99774,12.7025974 83.0978066,12.9085124 C83.2059446,13.1301837 83.3075811,13.3601887 83.4022488,13.5971463 C83.4961646,13.8313888 83.5741368,14.0436963 83.634279,14.229324 C83.6853287,14.3839134 83.7409079,14.545482 83.800479,14.7124816 C83.858653,14.8748733 83.9311031,15.0651316 84.0171492,15.2812507 C84.1472289,15.6069656 84.1472289,15.6069656 84.2473741,15.8580226 C84.326403,16.0538363 84.396124,16.2559665 84.4562255,16.4629395 C84.5127391,16.6567004 84.5645292,16.8583852 84.6127015,17.0725353 C84.6657329,17.3126058 84.7022032,17.5603748 84.7223935,17.8152274 C84.7408411,18.0472191 84.7500794,18.2782806 84.7500794,18.5083466 C84.7500794,18.7191941 84.7464459,18.9379804 84.7391979,19.1648932 C84.731497,19.4051429 84.7152999,19.6495243 84.6910169,19.8944433 C84.6673662,20.1407304 84.6375835,20.3758969 84.6015271,20.6000865 C84.5667448,20.8163544 84.5244504,21.0453328 84.4748323,21.2864989 C84.4277965,21.5158715 84.3815014,21.7374411 84.3361205,21.9503868 C84.2690935,22.2659454 84.2690935,22.2659454 84.2035873,22.5740387 C84.1588344,22.7844694 84.1117534,22.9970895 84.0630551,23.2087986 C84.0149024,23.4207687 83.9648311,23.6356895 83.9137596,23.8496886 C83.8398873,24.1635852 83.8398873,24.1635852 83.7714754,24.4526437 C83.7045067,24.7292649 83.7045067,24.7292649 83.6337091,25.0218108 C83.580558,25.2388178 83.5240436,25.4453147 83.4636142,25.6427843 C83.3984831,25.8547078 83.3243759,26.0586973 83.2430296,26.2501584 C83.1672542,26.4305816 83.0876116,26.6050036 83.0040417,26.7734112 C82.9146642,26.9535221 82.8171054,27.1284215 82.7114016,27.2979821 C82.6097173,27.4610946 82.5009883,27.6212116 82.3871859,27.7756997 C82.2707977,27.9345982 82.1473551,28.0896498 82.0142233,28.2439401 C81.8803633,28.3980153 81.739259,28.5465039 81.5882949,28.6919433 C81.4355516,28.8381963 81.2739811,28.9779126 81.0979564,29.1155648 C80.9375568,29.2394774 80.772483,29.3585515 80.6027762,29.4727735 C80.415642,29.5987251 80.2176512,29.7156333 80.0128633,29.8216332 C79.8116465,29.926691 79.6095957,30.0206764 79.4110895,30.1016455 C79.2087238,30.1851061 78.9868139,30.2642074 78.7459117,30.3393015 C78.5001709,30.4161853 78.2539701,30.4804928 78.0023152,30.5331641 C77.7800302,30.5787282 77.5591378,30.6199398 77.3388973,30.6569142 C77.0648757,30.7027473 76.7849986,30.725521 76.499945,30.725521 C76.2766314,30.725521 76.0506883,30.7239886 75.8221138,30.7209251 C75.5829405,30.7177195 75.3404796,30.7097183 75.0907004,30.6967199 C74.8227684,30.6819129 74.5536582,30.654537 74.2834709,30.6146619 C74.0204564,30.5758454 73.7570184,30.5269836 73.4923641,30.4679324 C73.2359541,30.4105345 72.9965357,30.350117 72.7767515,30.2872826 C72.5608514,30.2261403 72.3418767,30.1586802 72.1184908,30.0844893 C71.896963,30.0106418 71.6734653,29.9304852 71.4465721,29.8434969 C71.2141274,29.7540549 70.9940255,29.6613869 70.7899529,29.5670485 C70.5822001,29.4718666 70.3666393,29.3639538 70.1415388,29.2425742 C69.9137915,29.1193883 69.6954012,28.9909998 69.4864144,28.8573396 C69.2880792,28.7304916 69.0933522,28.5999442 68.9002147,28.46427 C68.700771,28.3235625 68.5005212,28.1711696 68.3017055,28.00906 C68.0979313,27.8437601 67.8999516,27.670143 67.7078013,27.4882669 C67.5067806,27.2979948 67.3182438,27.0995826 67.1407118,26.8911467 C66.9658676,26.6849859 66.799203,26.4659423 66.6412134,26.2350249 C66.4776929,25.9964627 66.3298618,25.7502306 66.1994643,25.4995189 C66.0702901,25.2528823 65.9553871,25.0035678 65.8543736,24.7503278 C65.7609602,24.5153246 65.6684684,24.2615603 65.5763328,23.9877737 C65.4765034,23.6902511 65.3950909,23.3916238 65.332967,23.0953621 C65.272071,22.8090698 65.2238825,22.5252154 65.1889373,22.247366 C65.1547583,21.9821196 65.1244785,21.6959457 65.0977479,21.3857661 C65.0728623,21.088771 65.0506872,20.7962073 65.0312248,20.5080703 C65.0104274,20.2001701 65,19.8975605 65,19.6002468 L65,18.7818822 C65,18.4935334 65.0047686,18.1989839 65.0142926,17.8982186 C65.0246685,17.5705527 65.0495759,17.2595303 65.0898214,16.9619092 C65.1314773,16.6596369 65.1963072,16.3414031 65.2845259,16.0036431 C65.3706372,15.6772027 65.4698542,15.3602125 65.5832516,15.0500345 C65.6974295,14.7400774 65.8246401,14.4412814 65.9662392,14.1511716 C66.0987297,13.8813915 66.2407542,13.6105398 66.3922864,13.3386007 C66.5412829,13.0712121 66.6623087,12.861488 66.7562791,12.7082846 C66.8567223,12.5436411 66.9953662,12.3355642 67.1751487,12.0784684 C67.3546187,11.8218196 67.5366642,11.5761257 67.7213415,11.3413981 C67.8932758,11.1228669 68.0305965,10.9491563 68.1336409,10.8198492 C68.2454672,10.6795219 68.4014982,10.4927804 68.6056973,10.2545754 C68.8158734,10.0103522 69.0268027,9.77900529 69.238648,9.56046478 C69.456007,9.33627851 69.6832959,9.11935901 69.9220552,8.90831648 C70.160888,8.69795498 70.4052872,8.49925566 70.6547384,8.31266635 C70.8975472,8.13085307 71.1294911,7.96668936 71.3536223,7.81833354 C71.5566818,7.68467597 71.7570968,7.55363027 71.9548689,7.42519576 C72.1742503,7.28272812 72.3900816,7.15272247 72.6025457,7.03523287 C72.8033268,6.92420382 73.0006698,6.82006778 73.1964954,6.72189868 C73.4178429,6.61140316 73.6506589,6.51149061 73.8895649,6.4238811 C74.1228949,6.33711154 74.3604624,6.2599456 74.601042,6.1927099 C74.8870073,6.11249668 75.1957734,6.05900297 75.5313955,6.02984911 C75.8338476,6.00444782 76.1100837,5.99501886 76.3619661,6.0024841 C76.6761645,6.01176121 76.9885139,6.06401788 77.2952386,6.15727802 C77.5734159,6.24154322 77.8255493,6.34256585 78.0563635,6.46555594 C78.2054164,6.54570799 78.430112,6.66545952 78.7297123,6.82440991 Z"/><path d="M9.70757671,67.7368404 C9.84032124,67.5864071 9.98832329,67.4247846 10.1498904,67.2536687 C10.2957346,67.0984956 10.4242719,66.9576226 10.5349072,66.8318205 C10.649481,66.7014264 10.7785494,66.5516092 10.9255529,66.3782959 C11.0754513,66.2032099 11.2329304,66.0203235 11.3961813,65.8317297 C11.5609185,65.6405248 11.7468503,65.4263061 11.955291,65.1875656 C12.1613901,64.9522543 12.3275359,64.7628926 12.4541677,64.6189821 C12.5755192,64.4811852 12.6981198,64.3392645 12.8219611,64.1932233 C12.9478462,64.0447718 13.0660701,63.9038863 13.1761355,63.7711728 C13.2876666,63.6365227 13.4191079,63.4770737 13.5685096,63.2952023 C13.7208876,63.1087698 13.8554142,62.9447153 13.9766309,62.7975578 C14.0938596,62.6568932 14.2270191,62.4976138 14.3797115,62.3154406 C14.5346262,62.1323148 14.6903995,61.9522141 14.8487791,61.7731703 C14.9981347,61.6050644 15.1539985,61.4287033 15.316362,61.2440954 C15.4773486,61.0610532 15.6272394,60.8889439 15.7660015,60.7278121 C15.9094993,60.561181 16.0579233,60.3901076 16.2132516,60.2123318 C16.3591721,60.0461532 16.5044483,59.8766518 16.6506621,59.7019364 C16.7995737,59.5247316 16.9358723,59.3614304 17.0618023,59.2093342 C17.1868036,59.059261 17.3164054,58.9028045 17.4527113,58.7374183 C17.6565104,58.4916274 17.6565104,58.4916274 17.8575618,58.2496324 C17.9953893,58.0845986 18.12475,57.9332212 18.2458107,57.7953536 C18.3479592,57.6790238 18.4615051,57.5433465 18.5876216,57.3866588 C18.7207574,57.2219839 18.8386106,57.0753294 18.9411057,56.9467944 C19.0358455,56.827985 19.1817675,56.6368541 19.3761411,56.3766368 C19.5704444,56.116775 19.7158724,55.91739 19.8125845,55.7784725 C19.9827603,55.5356988 19.9827603,55.5356988 20.2104784,55.2104856 C20.3865678,54.9597748 20.5742816,54.7109247 20.7735697,54.4639153 C20.9673485,54.2237343 21.1619407,53.9929762 21.355961,53.773256 C21.5503709,53.5522996 21.7380978,53.3472998 21.9212112,53.1561957 C22.0939939,52.9766776 22.2581156,52.8079329 22.4114898,52.6520931 C22.5738144,52.4863244 22.7485563,52.3147716 22.9357837,52.1372995 C23.1214763,51.9612821 23.282145,51.8130814 23.4216391,51.6894203 C23.6580396,51.481102 23.9700159,51.3010289 24.3860265,51.1116175 C24.9981899,50.8328969 25.7245944,51.0941489 26.0084963,51.6951403 C26.2923982,52.2961316 26.0262897,53.009279 25.4141262,53.2879996 C25.1998151,53.3855764 25.0702617,53.4603547 25.0566528,53.4723398 C24.9422035,53.5738048 24.8006527,53.7043712 24.6331216,53.8631734 C24.4671252,54.0205207 24.3137649,54.1710821 24.1709852,54.3168858 C24.0219798,54.4682918 23.8640893,54.6306298 23.6992312,54.80191 C23.5424657,54.9655201 23.3777301,55.1454132 23.2037932,55.3430981 C23.0323076,55.5373012 22.8607346,55.740762 22.6891095,55.9534842 C22.5229938,56.1593779 22.3673802,56.3656731 22.2232745,56.570844 C21.9962269,56.8951019 21.9962269,56.8951019 21.8277209,57.1354823 C21.7150091,57.2973964 21.5551725,57.5165358 21.3463562,57.7958071 C21.1384385,58.0741569 20.9790959,58.2828663 20.8652511,58.4256345 C20.7591614,58.5586773 20.6379796,58.709474 20.5032819,58.8760761 C20.3582612,59.0562557 20.2228756,59.2180296 20.0966468,59.3617828 C19.9893301,59.4839982 19.8728044,59.6203563 19.749029,59.7685591 C19.5509112,60.0070291 19.5509112,60.0070291 19.3503087,60.2489563 C19.2134966,60.4149639 19.0812256,60.5746428 18.9557739,60.7252485 C18.828204,60.8793337 18.688166,61.0471151 18.5372039,61.226756 C18.380375,61.41416 18.2226705,61.5981622 18.0660618,61.7765072 C17.9164354,61.9477625 17.771775,62.114498 17.6320848,62.2767075 C17.4876589,62.4444163 17.3322852,62.6228211 17.1659308,62.8119666 C17.0009534,62.9995465 16.8424176,63.1789311 16.692061,63.3481593 C16.5472364,63.5118834 16.403074,63.67856 16.2631474,63.8439485 C16.1153773,64.0202683 15.983619,64.1778716 15.8723901,64.3113049 C15.757697,64.4505732 15.6250219,64.6123698 15.4725444,64.7989184 C15.3193177,64.985452 15.1858412,65.1473698 15.0715664,65.285332 C14.9552504,65.4255826 14.8313943,65.57318 14.6999742,65.7281586 C14.5665102,65.8855476 14.4340894,66.038836 14.3030275,66.187659 C14.1781199,66.3296102 14.0131184,66.5176678 13.8093888,66.7502713 C13.6054995,66.9838011 13.4229824,67.1940856 13.2600841,67.3831513 C13.0978111,67.5706202 12.9431743,67.7502058 12.7998252,67.9176217 C12.6478175,68.0968559 12.5096843,68.2571952 12.3848796,68.3992326 C12.2553008,68.5465754 12.1090239,68.7068904 11.9439133,68.8825578 C11.7982936,69.0367878 11.6684365,69.1785955 11.554862,69.3073042 C11.5032455,69.3658473 11.4666783,69.420186 11.4451978,69.4647302 C11.2456089,69.8854992 10.9063121,70.2066294 10.4765081,70.3886018 C10.2762943,70.4743056 10.071119,70.5496677 9.86441105,70.6136515 C9.40148812,70.7583496 8.91921098,70.7240096 8.47839574,70.5300007 C8.24095224,70.4265078 8.01875933,70.307988 7.81486783,70.1755636 C7.60493578,70.0399156 7.41155665,69.8895289 7.23278603,69.7216906 C7.08676102,69.5837066 6.9251596,69.4169294 6.74558625,69.2197451 C6.58240036,69.0405555 6.40942435,68.8487508 6.22980028,68.6478364 C6.05610258,68.4550971 5.88877443,68.2743953 5.73153578,68.1095793 C5.56580154,67.9373845 5.41432375,67.7821264 5.27729552,67.6439826 C5.13139623,67.4969161 4.99230199,67.3549902 4.86236569,67.220625 C4.68744475,67.0407673 4.52631667,66.8447962 4.37901655,66.6333637 L4.21344292,66.3957016 C3.83249286,65.8488913 3.97518948,65.102429 4.53216474,64.7284313 C5.08914001,64.3544337 5.84947871,64.4945261 6.23042878,65.0413364 L6.39600241,65.2789984 C6.46946713,65.3844487 6.54737408,65.4792025 6.63212879,65.5663562 C6.7571273,65.6956087 6.88904093,65.8302078 7.02791181,65.9701896 C7.17401193,66.1174791 7.33388869,66.2813458 7.51132015,66.4657104 C7.68843548,66.6513422 7.87128605,66.848807 8.0631212,67.061686 C8.24115945,67.2608127 8.40922705,67.4471747 8.56729207,67.6207413 C8.70896962,67.7763133 8.82979494,67.9010084 8.92450306,67.9905102 C8.99220447,68.0540681 9.06983322,68.1144383 9.16071232,68.173164 C9.20841223,68.2041434 9.25951129,68.2340214 9.31469011,68.2629916 C9.43773948,68.0740269 9.56298729,67.9008329 9.70757671,67.7368404 Z"/><path d="M62.451556,91.2741408 C62.4771873,91.0581884 62.4951474,90.884743 62.5135624,90.6923833 C62.5321965,90.4977352 62.549325,90.3083737 62.5649158,90.1246993 C62.5801194,89.9448755 62.5939329,89.753945 62.60635,89.5517263 C62.6192442,89.3424829 62.6329023,89.1171395 62.6475493,88.8720252 C62.6690203,88.5297218 62.6690203,88.5297218 62.6851378,88.2692875 C62.6954229,88.1022922 62.711378,87.8757376 62.7333077,87.5851463 C62.7559641,87.2952212 62.7756352,87.0657935 62.7925559,86.8949284 C62.8075346,86.7436739 62.8211468,86.5847153 62.8333715,86.418105 C62.8468524,86.2343729 62.8615526,86.0565097 62.8779922,85.8791086 C62.893552,85.7190767 62.9091506,85.5484356 62.9247799,85.3672299 C62.9384148,85.2091468 62.9465302,85.050757 62.9491277,84.8920126 C62.9520642,84.7125515 62.9535376,84.5205238 62.9535376,84.3160033 L62.9535376,81.9113567 C62.9535376,81.6786633 62.952056,81.4648399 62.9491041,81.2699495 C62.9460868,81.0699934 62.9426933,80.8749163 62.9389243,80.6847214 C62.9350812,80.4907948 62.9316237,80.2924061 62.9285502,80.0894866 C62.9256571,79.8977704 62.9198417,79.6922362 62.9110782,79.4728456 C62.9017072,79.2374797 62.8950324,79.0358792 62.8910611,78.8674461 C62.887451,78.7143386 62.8812448,78.5358516 62.8724265,78.3324025 C62.8630937,78.1170838 62.8556825,77.9214017 62.8503773,77.7506126 C62.8445258,77.5868887 62.8337152,77.3471734 62.8179861,77.0331856 C62.8012397,76.6988897 62.7912404,76.3784676 62.7880283,76.0717914 C62.7849412,75.7762946 62.7833965,75.4915644 62.7833965,75.2175827 L62.7833965,74.4732073 C62.7833965,74.2353291 62.7866067,74.0084063 62.793052,73.7924764 C62.7997389,73.5676283 62.8133726,73.3254847 62.8335727,73.0693352 C62.8567575,72.763002 62.8981407,72.4895065 62.960329,72.248474 C63.1474896,71.5134945 63.7353185,71.1484391 64.478834,71.0187093 C65.1432151,70.9027871 65.7775228,71.3375714 65.8956,71.9898273 C65.9904861,72.513976 65.7231355,73.0190589 65.2696887,73.2573983 C65.2524038,73.477787 65.2410883,73.6796129 65.2356457,73.8626197 C65.2299146,74.0546229 65.2270349,74.2581823 65.2270349,74.4732073 L65.2270349,75.2175827 C65.2270349,75.4831985 65.2285352,75.7597394 65.2315378,76.0471556 C65.2344161,76.3219609 65.2434482,76.6113886 65.2586746,76.9153424 C65.2749184,77.2396042 65.2861842,77.489413 65.2926939,77.6719006 C65.2978653,77.8379915 65.3049181,78.0242129 65.3138554,78.230408 C65.3233073,78.4484727 65.3300425,78.6421734 65.334045,78.8119276 C65.3376862,78.9663562 65.3439528,79.1556275 65.3528459,79.3789907 C65.3623587,79.6171403 65.3687234,79.8420884 65.3719195,80.0538831 C65.374937,80.253112 65.3783308,80.4478373 65.3821003,80.6380563 C65.3859438,80.832007 65.3894017,81.0307911 65.3924734,81.234346 C65.3956126,81.4416041 65.397176,81.6672312 65.397176,81.9113567 L65.397176,84.3160033 C65.397176,84.5329967 65.3956044,84.7378197 65.3924509,84.9305464 C65.3889583,85.1439897 65.3780423,85.3570403 65.3597043,85.5696501 C65.3433608,85.7591374 65.3269866,85.9382631 65.3110843,86.1016897 C65.2965628,86.2585112 65.2830964,86.4214465 65.2706946,86.5904707 C65.2570365,86.7766166 65.2417209,86.955467 65.2247267,87.127074 C65.2096746,87.2790706 65.1912828,87.4935776 65.1700279,87.765514 C65.1490854,88.043077 65.133829,88.2597099 65.1243214,88.4140814 C65.1080854,88.6764289 65.1080854,88.6764289 65.0867711,89.0161506 C65.0722645,89.259011 65.0585174,89.4858234 65.0455445,89.6963432 C65.0320631,89.9158942 65.0169488,90.1248039 65.0001464,90.3235378 C64.9837975,90.5161443 64.9659081,90.7139178 64.9464793,90.9168679 C64.9268314,91.1221063 64.9074899,91.3088908 64.8877104,91.4835161 C64.8625837,91.6956622 64.8234247,91.9061203 64.7690142,92.1197418 C64.6501365,92.5779294 64.3661422,92.9589715 63.9615073,93.2067084 C63.7422033,93.3421401 63.5084773,93.4525354 63.2619777,93.5374078 C63.0051671,93.6257074 63.0051671,93.6257074 62.687385,93.734496 C62.4902464,93.8012574 62.3227176,93.8626865 62.1860454,93.918011 C62.0540718,93.9714336 61.916364,94.0334237 61.7789684,94.1011507 C61.6294879,94.175849 61.4884404,94.2509922 61.3581537,94.3251761 C61.2295343,94.3987819 61.1039323,94.4761279 60.9813085,94.5572299 C60.8783329,94.6253369 60.7555577,94.7184772 60.6178285,94.8341171 C60.4912461,94.9409476 60.3936607,95.0357356 60.3303421,95.1095458 L60.1613428,95.3090922 C59.7299251,95.8184899 58.959567,95.888088 58.4406998,95.4645438 C57.9218325,95.0409996 57.8509407,94.2847007 58.2823584,93.775303 L58.4561297,93.5701566 C58.614894,93.3849995 58.8043028,93.2010204 59.0271985,93.0129103 C59.2342586,92.8390514 59.4296893,92.6907928 59.6159917,92.5675744 C59.782646,92.457351 59.9531733,92.35234 60.1298354,92.2512438 C60.3017512,92.1533524 60.4819546,92.0573489 60.6763488,91.9602259 C60.8725982,91.86346 61.0652764,91.7767245 61.2545537,91.7001056 C61.4391324,91.6253886 61.6507101,91.5478078 61.8869429,91.4678132 C62.1985668,91.3611256 62.1992654,91.3608864 62.451556,91.2741408 Z"/><path d="M41.2477928,35.8313551 C41.6348646,36.374006 41.5005652,37.1219685 40.9478267,37.5019761 C40.5269443,37.7913327 40.1344691,37.972618 39.7194748,38.0226822 C39.3024125,38.0732102 38.8911252,38.0046953 38.5145129,37.8189302 C38.2692457,37.6973771 38.0423538,37.549461 37.8327085,37.3733757 C37.6631126,37.2299733 37.4836034,37.0569197 37.2908407,36.8527114 C37.1085625,36.6596102 36.9509088,36.4819352 36.8191381,36.3206526 C36.6816154,36.1532367 36.5509091,35.9782536 36.4308773,35.8014572 C36.301875,35.6137963 36.1790456,35.4117549 36.0619726,35.1953513 C35.9474071,34.9835827 35.8450773,34.772479 35.7544195,34.5603062 C35.6624745,34.3442125 35.5766341,34.1064717 35.4963218,33.8474026 C35.4133476,33.5806438 35.3430128,33.2947629 35.2853252,32.9926862 C35.2285886,32.7000475 35.182904,32.4039487 35.1486383,32.1077098 C35.1146288,31.8207253 35.0859918,31.5217626 35.0626911,31.2109719 C35.0394478,30.9017341 35.0248182,30.6551752 35.0190418,30.4725131 C35.0125339,30.2928204 35.0077785,30.0574429 35.0046349,29.7642494 C35.0015488,29.4756645 35,29.2487257 35,29.0823914 L35,28.5936148 C35,28.3918395 35.014092,28.1277207 35.0413511,27.794468 C35.0666953,27.474116 35.0895145,27.2245422 35.1103091,27.0424408 C35.1320041,26.8516005 35.1692821,26.5982327 35.2229863,26.2739211 C35.2760023,25.9585227 35.3223668,25.7026786 35.3638163,25.4984509 C35.4050787,25.2999549 35.4657219,25.0371328 35.5467741,24.7048061 C35.6275738,24.3759533 35.6932269,24.119687 35.7436844,23.9364996 C35.7944006,23.7501863 35.845795,23.5729833 35.8979331,23.4047988 C35.951325,23.23257 36.0121527,23.05177 36.0798608,22.863705 C36.1482153,22.6730228 36.2189221,22.4885971 36.2920264,22.3104092 C36.3669724,22.1277322 36.448538,21.944398 36.5357781,21.7622964 C36.6205965,21.5844372 36.7046719,21.4161024 36.7892018,21.2551123 C36.8741567,21.0940839 36.9675404,20.9262778 37.0702861,20.7499621 C37.1750704,20.5707657 37.2805127,20.4004619 37.3883065,20.2366079 C37.4952812,20.0748394 37.6076936,19.9150064 37.7248415,19.7580231 C37.8350515,19.6100454 37.9472927,19.4636522 38.0635639,19.3163176 C38.1808805,19.1684682 38.3477134,18.9674555 38.56797,18.7082864 C38.7775475,18.4625674 38.93618,18.2754611 39.0457939,18.1446918 C39.1658764,18.0024096 39.2859109,17.8654008 39.4087358,17.7305926 C39.5257432,17.6030451 39.6517313,17.4691145 39.7892371,17.3261379 C39.9233444,17.1875079 40.0563905,17.0522387 40.185815,16.9229015 C40.3188919,16.7891051 40.4561645,16.6543378 40.5975783,16.5186422 C40.7967994,16.3273371 40.7967994,16.3273371 40.982917,16.148148 C41.1135163,16.0223065 41.2593569,15.8854039 41.4182957,15.739364 C41.5598723,15.6085876 41.7477581,15.426609 41.9798046,15.1952155 C42.2268905,14.9488249 42.4206857,14.7581829 42.565216,14.6194855 C42.706862,14.4843089 42.8463374,14.3536031 42.9836563,14.2273622 C43.1283417,14.0943491 43.2770404,13.9635368 43.4272301,13.8370428 C43.5707873,13.7154651 43.7188802,13.5921155 43.868678,13.4693167 C44.0345047,13.3325308 44.1969935,13.2060123 44.3503402,13.0941578 C44.4929715,12.9887519 44.6420031,12.8800742 44.8030377,12.7641082 C44.9632157,12.6500985 45.1182905,12.5424229 45.2683193,12.4410615 C45.4233286,12.3363352 45.5829611,12.2330802 45.7472124,12.1312786 C45.9125924,12.0287775 46.0742516,11.93314 46.2255667,11.8481665 C46.380942,11.7595951 46.5455809,11.6700245 46.7195658,11.5793578 C46.8853615,11.4929586 47.0481879,11.4095561 47.2123104,11.3270185 C47.3793923,11.2437901 47.5510163,11.1619628 47.727186,11.0815188 C47.8922705,11.0061366 48.0573569,10.9311305 48.2181975,10.8584303 C48.3932002,10.7785192 48.636395,10.6723191 48.9538963,10.5370707 C49.2755297,10.4011824 49.5277572,10.2992663 49.7158461,10.2296005 C49.9644371,10.137452 49.9644371,10.137452 50.2108708,10.0458104 C50.3832084,9.98246344 50.5633345,9.91939228 50.7512986,9.85655535 C50.9329938,9.79581416 51.1083212,9.73843829 51.2724314,9.68599331 C51.4477634,9.62914968 51.6257493,9.57436923 51.8078232,9.52122799 C51.9831635,9.47028063 52.1525238,9.42233316 52.3174019,9.37697954 C52.4778258,9.33306234 52.6563896,9.28470234 52.8543233,9.23156821 C53.0641172,9.17546877 53.3390081,9.10761027 53.6840828,9.02661822 C54.0121308,8.95036008 54.2659742,8.89054952 54.4482317,8.84656772 C54.6322471,8.80272626 54.8056604,8.76186663 54.9684973,8.72398391 C55.2127446,8.66716701 55.2127446,8.66716701 55.474871,8.6062232 C55.6512843,8.56596325 55.8322301,8.52534818 56.0177133,8.48437611 C56.2025467,8.44354759 56.3828398,8.40421364 56.5635985,8.3653078 C56.828188,8.30947139 56.828188,8.30947139 57.111278,8.24968916 C57.2992629,8.21014184 57.4845632,8.17024421 57.6707882,8.12920721 C57.850337,8.09019619 58.0299022,8.04973664 58.2094841,8.00782818 C58.4011974,7.96308868 58.591053,7.92025354 58.7753707,7.88013157 C59.060029,7.81728039 59.060029,7.81728039 59.3827363,7.746139 C59.704587,7.67432604 59.704587,7.67432604 59.9734936,7.61412938 C60.1564873,7.57393283 60.3514929,7.53531832 60.5595357,7.49803561 C60.7587784,7.46247081 60.9565389,7.42882307 61.1528187,7.39709373 C61.3484792,7.36546452 61.534021,7.33684559 61.7049994,7.31190217 C61.8838433,7.28513214 62.0630802,7.26033159 62.2427084,7.23750057 C62.4193955,7.21504337 62.5975862,7.19375658 62.7825408,7.17306151 C62.9623681,7.15370346 63.2007456,7.13003352 63.4985062,7.10193985 C63.8065582,7.07279947 64.1090879,7.04992232 64.4092265,7.03315692 C64.706307,7.0173059 64.9926815,7.00776198 65.2684303,7.00456768 C65.5312451,7.00152322 65.788024,7 66.0387753,7 C66.2903359,7 66.5245593,7.00153299 66.7414859,7.00460834 C66.9716793,7.00786003 67.1967525,7.01601374 67.4210304,7.02936577 C67.6394602,7.04312251 67.8427917,7.05985962 68.0367155,7.08026971 C68.2128214,7.09956569 68.4038732,7.12185826 68.609419,7.1470827 C68.838197,7.17505211 69.0564294,7.20883596 69.2652298,7.24879199 C69.6486528,7.32247527 69.9962566,7.48321986 70.2855805,7.73044319 L70.4694243,7.88738982 C70.9786261,8.32209312 71.0324683,9.07974593 70.589684,9.57965472 C70.1468998,10.0795635 69.3751626,10.132423 68.8659608,9.69771972 L68.7438121,9.59344185 C68.6074436,9.56856733 68.4618956,9.54661829 68.3068861,9.52766739 C68.1110507,9.50363472 67.9306086,9.48258013 67.771029,9.4650832 C67.618551,9.44904443 67.4496274,9.43513958 67.2688964,9.42374962 C67.086924,9.41292227 66.8993954,9.40612868 66.7062658,9.40340055 C66.5015188,9.40049787 66.2789874,9.39904141 66.0387753,9.39904141 C65.7977538,9.39904141 65.5505799,9.40050765 65.2972618,9.4034421 C65.0568776,9.40622673 64.8050427,9.41461956 64.5449539,9.42849293 C64.2801673,9.44328707 64.0094698,9.46375708 63.7325739,9.4899502 C63.4444674,9.51713304 63.2161937,9.53979972 63.0541471,9.55723239 C62.8867083,9.57597782 62.7208103,9.59579611 62.5564538,9.61668607 C62.3950384,9.63720222 62.2339929,9.65948566 62.0688054,9.68420311 C61.9062956,9.70791911 61.7332848,9.73460519 61.5498388,9.76425989 C61.367012,9.79381449 61.182621,9.82518749 60.9975065,9.85823013 C60.8210359,9.88985513 60.6574889,9.92224028 60.5122288,9.95413665 C60.2468838,10.0135462 60.2468838,10.0135462 59.9209679,10.0862618 C59.5957805,10.1579536 59.5957805,10.1579536 59.3080962,10.2214674 C59.1322154,10.2597585 58.9543834,10.2998808 58.7746027,10.3418357 C58.5826908,10.3866216 58.390762,10.4298669 58.2024278,10.4707811 C58.0120253,10.5127444 57.8189804,10.5543096 57.6242662,10.5952721 C57.3419084,10.6549001 57.3419084,10.6549001 57.082044,10.7097288 C56.9106679,10.7466254 56.7346923,10.7850174 56.5541217,10.8249043 C56.3742011,10.8646477 56.1988781,10.9040006 56.0331026,10.9418222 C55.7760543,11.0015959 55.7760543,11.0015959 55.5319546,11.0583785 C55.3735405,11.0952323 55.2043877,11.1350881 55.0280562,11.1770934 C54.8413754,11.2221482 54.5813696,11.2834108 54.2497092,11.3605057 C53.9299033,11.4355696 53.6780036,11.4977526 53.497678,11.5459716 C53.3046803,11.5977812 53.1300204,11.645084 52.9752313,11.6874576 C52.8234782,11.7292018 52.6654976,11.7739276 52.5027521,11.8212144 C52.3453921,11.8671433 52.1907082,11.9147519 52.0338235,11.9656036 C51.8754685,12.0162202 51.7105135,12.0702017 51.5389849,12.1275441 C51.3737253,12.1827909 51.2166141,12.2378034 51.0724459,12.2907849 C50.8288325,12.3813871 50.8288325,12.3813871 50.5784188,12.4742114 C50.4315541,12.5286082 50.2102791,12.6180175 49.9232321,12.7392873 C49.6268334,12.865552 49.4010932,12.9641299 49.2445073,13.0356217 C49.0822546,13.1089699 48.92,13.1826894 48.7577435,13.2567802 C48.6065723,13.3258092 48.4599904,13.3956969 48.3222573,13.4642955 C48.1730532,13.53934 48.0207188,13.6173683 47.8652636,13.6983789 C47.7179976,13.7751219 47.5804171,13.8499716 47.4458882,13.9266316 C47.3192089,13.9977937 47.1877838,14.0755448 47.0517055,14.1598849 C46.9144987,14.2449246 46.781808,14.3307529 46.6536294,14.417352 C46.5204702,14.507316 46.3816993,14.6036711 46.24296,14.7023977 C46.095428,14.8086618 45.9544203,14.9114883 45.8139443,15.015273 C45.6946799,15.1022892 45.5701744,15.1992327 45.4377957,15.3084211 C45.2950626,15.4254353 45.1569225,15.5404951 45.0208725,15.6557091 C44.894951,15.7617686 44.7726418,15.8693657 44.6539319,15.9784988 C44.5278556,16.0944041 44.3993681,16.2148129 44.2709337,16.3373748 C44.1420061,16.461105 43.9582174,16.6419033 43.7211431,16.8783105 C43.4690295,17.1297147 43.2602998,17.3318817 43.0904719,17.4887487 C42.9426737,17.6245574 42.810655,17.7484852 42.6945557,17.8603549 C42.506566,18.0413465 42.506566,18.0413465 42.3056892,18.2342414 C42.1776744,18.3570797 42.0538355,18.4786585 41.931608,18.6015391 C41.809339,18.723733 41.6858412,18.8492943 41.5635952,18.9756555 C41.4413213,19.1028009 41.3282744,19.2229744 41.2273244,19.3330074 C41.1280995,19.4419217 41.0281304,19.5560276 40.9300913,19.6721803 C40.8178197,19.8061315 40.6552013,19.9979392 40.4429087,20.2468385 C40.2400389,20.4855518 40.0886659,20.6679373 39.9933086,20.7881054 C39.8929042,20.9153401 39.7942769,21.0439772 39.6967492,21.1749254 C39.6059878,21.2965505 39.5197119,21.4192214 39.4394768,21.5405476 C39.3568964,21.6660805 39.2735467,21.8007016 39.190445,21.9428148 C39.1050152,22.089418 39.0278771,22.2280315 38.9601579,22.3563855 C38.8913362,22.4874629 38.8208762,22.6285372 38.747966,22.7814211 C38.6792964,22.9247628 38.6162229,23.0665324 38.55871,23.206717 C38.4993554,23.3513908 38.4414096,23.5025319 38.3843695,23.6616479 C38.3277796,23.818834 38.2782248,23.9661273 38.2356982,24.1033076 C38.1919178,24.2445322 38.1481549,24.3954223 38.1035448,24.5592839 C38.0590142,24.720971 37.9982984,24.9579656 37.9227597,25.2653985 C37.8480345,25.5717906 37.7929665,25.8104504 37.759239,25.9726327 C37.7249493,26.141639 37.6830078,26.3730769 37.634489,26.6616994 C37.5872334,26.9470876 37.5552368,27.1645596 37.5388019,27.3091281 C37.5216007,27.4597622 37.5010282,27.6847651 37.4774012,27.9833578 C37.4546679,28.2613231 37.4436384,28.4680441 37.4436384,28.5936148 L37.4436384,29.0823914 C37.4436384,29.2389188 37.4451346,29.4581569 37.4481383,29.7390309 C37.4510851,30.0138678 37.4554647,30.2306462 37.4613177,30.39259 C37.4660182,30.5409198 37.4787939,30.7562324 37.4997203,31.0346462 C37.5205558,31.3125563 37.5459682,31.5778541 37.5762859,31.833725 C37.6040618,32.0738256 37.6405931,32.3105981 37.6864872,32.5473373 C37.7286635,32.7681724 37.7778462,32.9680788 37.8337539,33.1478216 C37.8916576,33.3346045 37.9504563,33.4974514 38.0085298,33.6339422 C38.0693117,33.7761921 38.1397874,33.9215815 38.220104,34.0700427 C38.2979131,34.213869 38.3768171,34.3436577 38.4602534,34.4650677 C38.5434299,34.5875554 38.6304434,34.7040447 38.7233033,34.8170961 C38.8179049,34.9328803 38.9381103,35.0683513 39.0831731,35.2220274 C39.2177514,35.3645964 39.3336104,35.4762889 39.4243242,35.553001 C40.0988543,35.1568558 40.860721,35.2887042 41.2477928,35.8313551 Z"/><path d="M70.0195011,44.4120439 C69.9000614,43.7600271 70.3416261,43.1364052 71.0057636,43.0191452 C71.669901,42.9018853 72.3051158,43.3353914 72.4245556,43.9874081 C72.451168,44.1326845 72.4665781,44.1693263 72.3793806,44.0900191 C72.5456111,44.2429087 72.7004971,44.3958343 72.8414604,44.5462674 C72.9756222,44.6885504 73.1242405,44.8528446 73.2879193,45.0396584 C73.4485313,45.222972 73.6198152,45.4232153 73.8005431,45.6388869 C73.9765704,45.8482013 74.167849,46.0751114 74.3729604,46.3179406 C74.585396,46.5685166 74.7977571,46.8235867 75.0086786,47.0814818 C75.2266196,47.346984 75.4390307,47.6156576 75.6455655,47.8870517 C75.8480482,48.1528632 76.004416,48.3607388 76.1151001,48.5113171 C76.245738,48.6886892 76.3983576,48.9210166 76.5789534,49.2154185 C76.7439577,49.4851556 76.8727991,49.6969791 76.9658359,49.851494 C77.0624765,50.0119942 77.1545089,50.169319 77.2432296,50.325785 C77.3278186,50.4757278 77.4138676,50.6304772 77.5013844,50.7900421 C77.5929257,50.9569447 77.6838079,51.1293903 77.775025,51.3093061 C77.8642574,51.4860924 77.9492323,51.6600573 78.0290362,51.8292921 C78.1111471,52.0026089 78.1969023,52.1925354 78.2864867,52.3993355 C78.3763002,52.6066645 78.463218,52.8170167 78.5477926,53.0317822 C78.6291117,53.2390461 78.7069898,53.4419065 78.7814278,53.6403751 C78.8565145,53.8405732 78.934466,54.0550859 79.0157463,54.2851817 C79.0991498,54.5220814 79.1791929,54.7641783 79.2555715,55.0104453 C79.3262384,55.2375643 79.3941614,55.4507327 79.4601538,55.6524691 C79.531654,55.8727369 79.5993289,56.0978269 79.6634812,56.3287612 C79.7255483,56.5529684 79.7922344,56.8070965 79.8629367,57.0885748 C79.9324634,57.3623478 79.9954948,57.6080194 80.0510385,57.8218018 C80.1106704,58.0482731 80.1739476,58.2979129 80.2411113,58.5716332 C80.305698,58.8355873 80.3721751,59.1018049 80.4405429,59.3702851 C80.5109153,59.6466376 80.5767187,59.9111275 80.6371461,60.1604622 C80.7001702,60.4172387 80.7608022,60.676986 80.819045,60.9397044 C80.8755553,61.1946079 80.9324444,61.4524963 80.990563,61.7172769 C81.0473029,61.9799908 81.1010013,62.2315328 81.1510687,62.4691253 C81.2014725,62.7054665 81.2560734,62.9568526 81.3148667,63.2232544 C81.4031319,63.6230968 81.4031319,63.6230968 81.487619,64.0054455 C81.544121,64.2576528 81.6021398,64.5124927 81.6607597,64.7660351 C81.722185,65.0276052 81.7798097,65.2761493 81.8334533,65.510884 C81.8861288,65.7406429 81.9418533,65.9798034 81.9998406,66.2250569 C82.0608915,66.4799776 82.1170007,66.7193133 82.1681768,66.9431195 C82.2158525,67.151617 82.2636861,67.3479336 82.3127038,67.5361476 C82.3621761,67.7289535 82.4135484,67.9259069 82.4681357,68.1320124 C82.5200191,68.3313923 82.569924,68.5179332 82.6178244,68.6915683 C82.6665947,68.8683568 82.7161186,69.0455253 82.7676492,69.2275321 C82.8174773,69.4061597 82.8676833,69.5847885 82.919177,69.7666495 C82.9672683,69.9383353 83.0140869,70.0993881 83.0610941,70.2547237 C83.1068643,70.4083721 83.1545207,70.5646904 83.2059898,70.7299153 C83.2573155,70.8978786 83.3255331,71.1252827 83.411687,71.4156161 C83.4976371,71.7078827 83.5736959,71.9757736 83.6410748,72.2238657 C83.7048115,72.4620972 83.762472,72.6798502 83.8154272,72.8824225 C83.8662361,73.0804376 83.9136276,73.2673003 83.9561109,73.4371238 C84.0023565,73.6179474 84.049945,73.8130033 84.0977301,74.0173527 C84.1444142,74.2130483 84.1906591,74.4011897 84.2353314,74.5773606 L84.3072703,74.8565014 C84.4727852,75.4987407 84.0766454,76.1511062 83.4224671,76.3136005 C82.7682889,76.4760948 82.1037962,76.0871846 81.9382812,75.4449452 L81.8652186,75.161409 C81.8166187,74.9697876 81.7677063,74.770794 81.7172745,74.5593385 C81.671861,74.3651795 81.6280985,74.1858056 81.5845422,74.0154337 C81.541738,73.8443928 81.4954947,73.6620573 81.4471743,73.4736905 C81.3967642,73.280901 81.3402361,73.0674243 81.2787749,72.8376652 C81.2170914,72.6105734 81.1454662,72.3582984 81.0647634,72.0838621 C80.9810941,71.8019142 80.914569,71.580152 80.8673348,71.4255164 C80.8148691,71.2571538 80.7643233,71.0913578 80.7171969,70.9331166 C80.6667861,70.7665764 80.6154025,70.5898202 80.5639177,70.4060018 C80.5124929,70.2244019 80.4614515,70.0428008 80.4120467,69.865657 C80.3603156,69.6829755 80.3093534,69.5006614 80.2591602,69.3187148 C80.208097,69.1336147 80.1552321,68.93601 80.1018545,68.7308429 C80.0470279,68.5238783 79.9941079,68.3209914 79.944172,68.1263471 C79.8901033,67.9187729 79.8366895,67.6995545 79.7838791,67.4686015 C79.7345692,67.252957 79.680296,67.0214529 79.6202837,66.7708479 C79.5602991,66.5171686 79.5033574,66.2727841 79.4492729,66.0368782 C79.3965243,65.8060609 79.3399603,65.5620915 79.2786687,65.3010613 C79.2179255,65.0383668 79.1587105,64.7782723 79.1002938,64.5174967 C79.0149891,64.1314711 79.0149891,64.1314711 78.9266424,63.7312594 C78.8666795,63.4595584 78.8108979,63.2027364 78.7587017,62.9579743 C78.7088745,62.7215377 78.6559967,62.4738399 78.6009212,62.2188 C78.5440004,61.9595077 78.487462,61.7032091 78.4313061,61.4499044 C78.3768828,61.2044146 78.320281,60.9619328 78.2606932,60.7191358 C78.2016524,60.4755433 78.1380419,60.2198672 78.0698654,59.9521381 C77.9996842,59.6765366 77.9314186,59.4031567 77.8652507,59.1327393 C77.8012963,58.8720993 77.7412496,58.6352045 77.6842005,58.4185179 C77.6265253,58.1965571 77.5624266,57.9467257 77.491131,57.665971 C77.4240352,57.3988664 77.3620686,57.1627231 77.3056634,56.9589668 C77.2507755,56.7613844 77.1928428,56.5686974 77.1327239,56.383481 C77.0638951,56.1730844 76.9925079,55.9490443 76.9182165,55.7102745 C76.8502753,55.4912135 76.7795893,55.2774179 76.7065891,55.070066 C76.6306348,54.8550491 76.5578572,54.6547743 76.4883048,54.4693321 C76.4181038,54.2821604 76.3444916,54.0904121 76.2680173,53.8954937 C76.1937019,53.7067822 76.1169492,53.5210309 76.0377634,53.3382354 C75.9583485,53.1549111 75.8834782,52.9890918 75.8124264,52.8391138 C75.7408899,52.6874149 75.6652393,52.5325392 75.5864412,52.376421 C75.5076902,52.221097 75.4288119,52.0714284 75.3498314,51.9274272 C75.2668264,51.7760883 75.1853985,51.6296496 75.1068501,51.4904084 C75.0298447,51.3546084 74.9483103,51.2152294 74.8622491,51.0722994 C74.7725839,50.9233842 74.6464038,50.7159359 74.4848451,50.4518297 C74.3373219,50.2113432 74.2189337,50.0311251 74.1342258,49.9161128 C74.0324286,49.7776256 73.883532,49.5796821 73.688298,49.3233862 C73.4993186,49.0750609 73.3052178,48.8295474 73.1046219,48.5851725 C72.9012641,48.3365285 72.6979782,48.0923588 72.4933586,47.8509991 C72.2857539,47.6052212 72.0933584,47.3769861 71.9148072,47.1646675 C71.7436662,46.9604392 71.5838028,46.7735474 71.4353441,46.6041048 C71.289952,46.4381624 71.1607112,46.2952896 71.0456682,46.1732744 C70.9440636,46.0648502 70.8317479,45.953956 70.7135525,45.8452222 C70.3307024,45.4969093 70.1314376,45.0231008 70.0195011,44.4120439 Z"/></g></g><text x="0" y="115" fill="#000000" font-size="5px" font-weight="bold" font-family="'Helvetica Neue', Helvetica, Arial-Unicode, Arial, Sans-serif">Created by Margaret Hagan</text><text x="0" y="120" fill="#000000" font-size="5px" font-weight="bold" font-family="'Helvetica Neue', Helvetica, Arial-Unicode, Arial, Sans-serif">from the Noun Project</text></svg>